<svg xmlns="http://www.w3.org/2000/svg" xmlns:xlink="http://www.w3.org/1999/xlink" version="1.1" width="256" height="256" viewBox="0 0 256 256" xml:space="preserve">

<defs>
</defs>
<g style="stroke: none; stroke-width: 0; stroke-dasharray: none; stroke-linecap: butt; stroke-linejoin: miter; stroke-miterlimit: 10; fill: none; fill-rule: nonzero; opacity: 1;" transform="translate(1.4065934065934016 1.4065934065934016) scale(2.81 2.81)" >
	<path d="M 80.43 90 H 9.57 C 4.285 90 0 85.715 0 80.43 V 9.57 C 0 4.285 4.285 0 9.57 0 h 70.86 C 85.715 0 90 4.285 90 9.57 v 70.86 C 90 85.715 85.715 90 80.43 90 z" style="stroke: none; stroke-width: 1; stroke-dasharray: none; stroke-linecap: butt; stroke-linejoin: miter; stroke-miterlimit: 10; fill: rgb(135,59,209); fill-rule: nonzero; opacity: 1;" transform=" matrix(1 0 0 1 0 0) " stroke-linecap="round" />
	<path d="M 46.084 54.245 L 35.755 43.916 c -2.642 -2.642 -2.642 -6.925 0 -9.566 l 0 0 c 1.569 -1.569 1.729 -4.059 0.374 -5.816 l -4.82 -6.247 c -1.997 -2.589 -5.815 -2.834 -8.127 -0.522 l 0 0 c -7.576 7.576 -7.576 19.858 0 27.433 l 17.621 17.621 c 7.576 7.576 19.858 7.576 27.433 0 l 0 0 c 2.312 -2.312 2.067 -6.13 -0.522 -8.127 l -6.247 -4.82 c -1.757 -1.355 -4.247 -1.196 -5.816 0.374 l 0 0 C 53.009 56.886 48.726 56.886 46.084 54.245 z" style="stroke: none; stroke-width: 1; stroke-dasharray: none; stroke-linecap: butt; stroke-linejoin: miter; stroke-miterlimit: 10; fill: rgb(255,255,255); fill-rule: nonzero; opacity: 1;" transform=" matrix(1 0 0 1 0 0) " stroke-linecap="round" />
	<path d="M 69.824 49.014 c -1.478 0 -2.676 -1.198 -2.676 -2.676 c 0 -12.95 -10.536 -23.486 -23.486 -23.486 c -1.478 0 -2.676 -1.198 -2.676 -2.676 c 0 -1.478 1.198 -2.676 2.676 -2.676 C 59.564 17.5 72.5 30.436 72.5 46.338 C 72.5 47.816 71.302 49.014 69.824 49.014 z" style="stroke: none; stroke-width: 1; stroke-dasharray: none; stroke-linecap: butt; stroke-linejoin: miter; stroke-miterlimit: 10; fill: rgb(255,255,255); fill-rule: nonzero; opacity: 1;" transform=" matrix(1 0 0 1 0 0) " stroke-linecap="round" />
	<path d="M 59.522 49.014 c -1.478 0 -2.676 -1.198 -2.676 -2.676 c 0 -7.27 -5.915 -13.184 -13.184 -13.184 c -1.478 0 -2.676 -1.198 -2.676 -2.676 c 0 -1.478 1.198 -2.676 2.676 -2.676 c 10.221 0 18.536 8.315 18.536 18.536 C 62.198 47.816 61 49.014 59.522 49.014 z" style="stroke: none; stroke-width: 1; stroke-dasharray: none; stroke-linecap: butt; stroke-linejoin: miter; stroke-miterlimit: 10; fill: rgb(255,255,255); fill-rule: nonzero; opacity: 1;" transform=" matrix(1 0 0 1 0 0) " stroke-linecap="round" />
</g>
</svg>